<svg xmlns="http://www.w3.org/2000/svg" xmlns:xlink="http://www.w3.org/1999/xlink" width="624.578" height="324.513" viewBox="0 0 624.578 324.513">
  <defs>
    <linearGradient id="linear-gradient" x1="0.5" x2="0.5" y2="1" gradientUnits="objectBoundingBox">
      <stop offset="0" stop-color="#a2f8e6"/>
      <stop offset="1" stop-color="#d1fff7"/>
    </linearGradient>
    <clipPath id="clip-path">
      <rect id="Rectangle_5080" data-name="Rectangle 5080" width="624.578" height="299.026" fill="none"/>
    </clipPath>
  </defs>
  <g id="Group_14778" data-name="Group 14778" transform="translate(-683 -3762)">
    <path id="Subtraction_6" data-name="Subtraction 6" d="M-15171.5-2660a152.618,152.618,0,0,1-30.532-3.078,150.713,150.713,0,0,1-28.437-8.828,151.54,151.54,0,0,1-25.735-13.968,152.622,152.622,0,0,1-22.421-18.5,152.574,152.574,0,0,1-18.5-22.422,151.561,151.561,0,0,1-13.969-25.734,150.712,150.712,0,0,1-8.827-28.438A152.578,152.578,0,0,1-15323-2811.5a152.58,152.58,0,0,1,3.078-30.532,150.7,150.7,0,0,1,8.827-28.438,151.561,151.561,0,0,1,13.969-25.734,152.589,152.589,0,0,1,18.5-22.422,152.6,152.6,0,0,1,22.421-18.5,151.5,151.5,0,0,1,25.735-13.969,150.7,150.7,0,0,1,28.438-8.828A152.611,152.611,0,0,1-15171.5-2963a152.6,152.6,0,0,1,30.532,3.078,150.686,150.686,0,0,1,28.438,8.828,151.572,151.572,0,0,1,25.735,13.969,152.6,152.6,0,0,1,22.421,18.5,152.607,152.607,0,0,1,18.5,22.422,151.561,151.561,0,0,1,13.968,25.734,150.707,150.707,0,0,1,8.828,28.438A152.651,152.651,0,0,1-15020-2811.5a152.649,152.649,0,0,1-3.078,30.532,150.7,150.7,0,0,1-8.828,28.438,151.579,151.579,0,0,1-13.968,25.734,152.592,152.592,0,0,1-18.5,22.422,152.635,152.635,0,0,1-22.421,18.5,151.571,151.571,0,0,1-25.735,13.968,150.7,150.7,0,0,1-28.438,8.828A152.611,152.611,0,0,1-15171.5-2660Zm0-243.955a92.559,92.559,0,0,0-92.454,92.455,92.559,92.559,0,0,0,92.454,92.455,92.56,92.56,0,0,0,92.455-92.455A92.56,92.56,0,0,0-15171.5-2903.955Z" transform="translate(16242 6725.001)" fill="url(#linear-gradient)"/>
    <g id="Group_12948" data-name="Group 12948" transform="translate(644.422 3787.487)">
      <g id="Group_12050" data-name="Group 12050" transform="translate(38.578)" clip-path="url(#clip-path)">
        <path id="Path_19885" data-name="Path 19885" d="M843.69,775.232l-19.129,79.725h338.2l7.769-97.145h-306.5c-9.534,0-17.879,7.145-20.344,17.42" transform="translate(-701.279 -644.509)" fill="#50bfa5"/>
        <path id="Path_19886" data-name="Path 19886" d="M3133.5,781.993l-13.667,72.964h34.129l8.668-97.145a29.637,29.637,0,0,0-29.13,24.181" transform="translate(-2693.378 -644.509)" fill="#3c8f7c"/>
        <path id="Path_19887" data-name="Path 19887" d="M429.879,1035.259l1.436,86.135H465.73l-19.1-86.135Z" transform="translate(-365.606 -880.474)" fill="#466eb6"/>
        <path id="Path_19888" data-name="Path 19888" d="M486.021,1407.555l-5.674,17.877H814.865v-17.877Z" transform="translate(-408.529 -1197.107)" fill="#96d9c9"/>
        <path id="Path_19889" data-name="Path 19889" d="M2719.709,1407.555l-5.688,17.877h49.3v-17.877Z" transform="translate(-2369.23 -1197.107)" fill="#3c8f7c"/>
        <path id="Path_19890" data-name="Path 19890" d="M797.411,1035.259l-6.5,86.135H438.289l-.21-12.6H763.011l11.731-73.54Z" transform="translate(-372.581 -880.474)" fill="#466eb6"/>
        <path id="Path_19891" data-name="Path 19891" d="M3071.984,1035.259H3124.8l-6.5,86.135h-52.819Z" transform="translate(-2647.154 -880.474)" fill="#13375b"/>
        <path id="Path_19892" data-name="Path 19892" d="M743.654,1599.138l-6.9,25.8H740.2l14.014-24.987Z" transform="translate(-626.598 -1360.046)" fill="#184655"/>
        <g id="Group_12058" data-name="Group 12058" transform="translate(-60.488)">
          <path id="Path_19893" data-name="Path 19893" d="M3336.82,1272.755a2.026,2.026,0,1,0,2.248-1.777,2.026,2.026,0,0,0-2.248,1.777" transform="translate(-2837.91 -1080.939)" fill="#fae0b2"/>
          <path id="Path_19894" data-name="Path 19894" d="M3343.363,1280.425a1.31,1.31,0,1,1-.945-2.018,1.312,1.312,0,0,1,.945,2.018" transform="translate(-2841.438 -1087.26)" fill="#f47458"/>
          <path id="Path_19895" data-name="Path 19895" d="M3248.63,1299.309a2.027,2.027,0,1,1-2.856-.24,2.027,2.027,0,0,1,2.856.24" transform="translate(-2759.878 -1104.434)" fill="#fae0b2"/>
          <path id="Path_19896" data-name="Path 19896" d="M3254,1307.545a1.31,1.31,0,1,1-.735-2.306,1.312,1.312,0,0,1,.735,2.306" transform="translate(-2765.65 -1110.084)" fill="#f47458"/>
          <path id="Path_19897" data-name="Path 19897" d="M3307.028,1271.069a2.026,2.026,0,1,1-2.033-2.02,2.027,2.027,0,0,1,2.033,2.02" transform="translate(-2809.138 -1079.31)" fill="#fae0b2"/>
          <path id="Path_19898" data-name="Path 19898" d="M3309.407,1279.158a1.31,1.31,0,1,1,1.306-1.315,1.312,1.312,0,0,1-1.306,1.315" transform="translate(-2813.489 -1085.679)" fill="#f47458"/>
          <path id="Path_19899" data-name="Path 19899" d="M3369.917,1286.97a2.026,2.026,0,1,1-.259-2.854,2.026,2.026,0,0,1,.259,2.854" transform="translate(-2863.023 -1091.724)" fill="#fae0b2"/>
          <path id="Path_19900" data-name="Path 19900" d="M3371.956,1292.869a1.31,1.31,0,1,1-.167-1.845,1.312,1.312,0,0,1,.167,1.845" transform="translate(-2865.834 -1097.741)" fill="#f47458"/>
          <path id="Path_19901" data-name="Path 19901" d="M3265.969,1445.585a2.026,2.026,0,1,0-2.72.9,2.026,2.026,0,0,0,2.72-.9" transform="translate(-2774.401 -1226.954)" fill="#fae0b2"/>
          <path id="Path_19902" data-name="Path 19902" d="M3270.828,1447.207a1.31,1.31,0,1,1-.507-1.891,1.309,1.309,0,0,1,.507,1.891" transform="translate(-2779.752 -1229.104)" fill="#f47458"/>
          <path id="Path_19903" data-name="Path 19903" d="M3226.287,1394.271a2.026,2.026,0,1,0-2.663-1.058,2.027,2.027,0,0,0,2.663,1.058" transform="translate(-2741.509 -1182.504)" fill="#fae0b2"/>
          <path id="Path_19904" data-name="Path 19904" d="M3233.257,1396.409a1.31,1.31,0,1,1-1.614-1.922,1.312,1.312,0,0,1,1.614,1.922" transform="translate(-2747.797 -1185.897)" fill="#f47458"/>
          <path id="Path_19905" data-name="Path 19905" d="M3228.871,1329.455a2.026,2.026,0,1,0-1.36-2.522,2.026,2.026,0,0,0,1.36,2.522" transform="translate(-2744.883 -1127.309)" fill="#fae0b2"/>
          <path id="Path_19906" data-name="Path 19906" d="M3234.861,1333.311a1.31,1.31,0,1,1,2.408-.246,1.3,1.3,0,0,1-2.408.246" transform="translate(-2751.074 -1132.323)" fill="#f47458"/>
          <path id="Path_19907" data-name="Path 19907" d="M3239.727,1420.915a2.026,2.026,0,1,1-.732,2.771,2.026,2.026,0,0,1,.732-2.771" transform="translate(-2754.489 -1208.236)" fill="#fae0b2"/>
          <path id="Path_19908" data-name="Path 19908" d="M3246.666,1426.375a1.31,1.31,0,1,1,1.467-1.925,1.312,1.312,0,0,1-1.467,1.925" transform="translate(-2760.42 -1210.923)" fill="#f47458"/>
          <path id="Path_19909" data-name="Path 19909" d="M3272.513,1281.465a2.026,2.026,0,1,0,.579-2.807,2.026,2.026,0,0,0-.579,2.807" transform="translate(-2782.946 -1087.198)" fill="#fae0b2"/>
          <path id="Path_19910" data-name="Path 19910" d="M3280.21,1287.954a1.309,1.309,0,1,1,.375-.376,1.327,1.327,0,0,1-.375.376" transform="translate(-2788.05 -1093.344)" fill="#f47458"/>
          <path id="Path_19911" data-name="Path 19911" d="M3222.042,1358.5a2.026,2.026,0,1,1-2.342,1.652,2.026,2.026,0,0,1,2.342-1.652" transform="translate(-2738.288 -1155.365)" fill="#fae0b2"/>
          <path id="Path_19912" data-name="Path 19912" d="M3228.259,1366.009a1.31,1.31,0,1,1,1.514-1.068,1.312,1.312,0,0,1-1.514,1.068" transform="translate(-2744.668 -1159.561)" fill="#f47458"/>
          <path id="Path_19913" data-name="Path 19913" d="M3259.239,1306.606l2.473-10.619-.372-.087-2.578,11.066-1.311-11.286-.38.044,1.258,10.832-4.934-9.724-.341.173,5.141,10.131-8.259-7.8-.262.278,7.926,7.489-10.031-4.278-.15.352,10.451,4.457-11.343-.666-.022.382,10.885.64-10.433,3.17.111.366,10.872-3.3-9.118,6.78.228.307,8.75-6.506-5.955,9.134.32.208,13.389-20.431-.32-.211Z" transform="translate(-2761.111 -1101.959)" fill="#f47458"/>
          <rect id="Rectangle_5078" data-name="Rectangle 5078" width="1.638" height="51.201" transform="translate(496.354 205.918) rotate(-56.763)" fill="#f47458"/>
          <path id="Path_19914" data-name="Path 19914" d="M3471.142,928.405a3.43,3.43,0,1,0,4.786-.788,3.43,3.43,0,0,0-4.786.788" transform="translate(-2951.615 -788.379)" fill="#fae0b2"/>
          <path id="Path_19915" data-name="Path 19915" d="M3478.69,942.645a2.218,2.218,0,1,1,.256-3.764,2.22,2.22,0,0,1-.256,3.764Z" transform="translate(-2955.804 -798.152)" fill="#f47458"/>
          <path id="Path_19916" data-name="Path 19916" d="M3318.772,895.4a3.43,3.43,0,1,1-4.031-2.7,3.43,3.43,0,0,1,4.031,2.7" transform="translate(-2816.794 -759.173)" fill="#fae0b2"/>
          <path id="Path_19917" data-name="Path 19917" d="M3324.164,909.508a2.218,2.218,0,1,1,.8-4.018,2.221,2.221,0,0,1-.8,4.018" transform="translate(-2824.906 -769.788)" fill="#f47458"/>
          <path id="Path_19918" data-name="Path 19918" d="M3428.409,901.471a3.43,3.43,0,1,1-1.354-4.658,3.431,3.431,0,0,1,1.354,4.658" transform="translate(-2910.343 -762.367)" fill="#fae0b2"/>
          <path id="Path_19919" data-name="Path 19919" d="M3429.533,912.867a2.218,2.218,0,1,1,3.011-.875,2.221,2.221,0,0,1-3.011.875" transform="translate(-2915.799 -772.833)" fill="#f47458"/>
          <path id="Path_19920" data-name="Path 19920" d="M3508.491,976.592a3.43,3.43,0,1,1,1.957-4.439,3.431,3.431,0,0,1-1.957,4.439" transform="translate(-2979.953 -824.941)" fill="#fae0b2"/>
          <path id="Path_19921" data-name="Path 19921" d="M3510.889,984.525a2.218,2.218,0,1,1,1.265-2.87,2.221,2.221,0,0,1-1.265,2.87" transform="translate(-2983.396 -833.681)" fill="#f47458"/>
          <path id="Path_19922" data-name="Path 19922" d="M3224.489,1126.233a3.43,3.43,0,1,0-4.767-.9,3.43,3.43,0,0,0,4.767.9" transform="translate(-2737.822 -952.52)" fill="#fae0b2"/>
          <path id="Path_19923" data-name="Path 19923" d="M3234.559,1130.13a2.218,2.218,0,1,1,.8-3.215,2.215,2.215,0,0,1-.8,3.215Z" transform="translate(-2748.189 -957.603)" fill="#f47458"/>
          <path id="Path_19924" data-name="Path 19924" d="M3207.812,1017.7a3.43,3.43,0,1,0-3.076-3.751,3.43,3.43,0,0,0,3.076,3.751" transform="translate(-2725.572 -859.723)" fill="#fae0b2"/>
          <path id="Path_19925" data-name="Path 19925" d="M3220.561,1024.143a2.218,2.218,0,1,1-.813-4.17,2.221,2.221,0,0,1,.813,4.17Z" transform="translate(-2736.281 -867.465)" fill="#f47458"/>
          <path id="Path_19926" data-name="Path 19926" d="M3264.8,923.843a3.43,3.43,0,1,0,.054-4.851,3.429,3.429,0,0,0-.054,4.851" transform="translate(-2775.835 -780.76)" fill="#fae0b2"/>
          <path id="Path_19927" data-name="Path 19927" d="M3274.725,931.955a2.217,2.217,0,1,1,3.768,1.61,2.2,2.2,0,0,1-3.768-1.61" transform="translate(-2785.111 -790.749)" fill="#f47458"/>
          <path id="Path_19928" data-name="Path 19928" d="M3205.865,1068.178a3.43,3.43,0,1,1-3.356,3.5,3.43,3.43,0,0,1,3.356-3.5" transform="translate(-2723.691 -908.471)" fill="#fae0b2"/>
          <path id="Path_19929" data-name="Path 19929" d="M3215.851,1079.46a2.218,2.218,0,1,1,3.751-1.648,2.221,2.221,0,0,1-3.751,1.648" transform="translate(-2734.459 -914.819)" fill="#f47458"/>
          <path id="Path_19930" data-name="Path 19930" d="M3368.776,888.564a3.43,3.43,0,1,0,3.159-3.681,3.43,3.43,0,0,0-3.159,3.681" transform="translate(-2865.092 -752.573)" fill="#fae0b2"/>
          <path id="Path_19931" data-name="Path 19931" d="M3379.062,902a2.215,2.215,0,1,1,.864-.248,2.22,2.22,0,0,1-.864.248" transform="translate(-2871.819 -763.376)" fill="#f47458"/>
          <path id="Path_19932" data-name="Path 19932" d="M3230.859,961.256a3.43,3.43,0,1,1-4.822.526,3.43,3.43,0,0,1,4.822-.526" transform="translate(-2743.06 -816.893)" fill="#fae0b2"/>
          <path id="Path_19933" data-name="Path 19933" d="M3238.127,974.986a2.218,2.218,0,1,1,3.118-.34,2.221,2.221,0,0,1-3.118.34" transform="translate(-2753.282 -825.856)" fill="#f47458"/>
          <path id="Path_19934" data-name="Path 19934" d="M3270.14,949.213l12.022-13.31-.481-.434L3269.2,948.738l6.9-16.784-.6-.246-7,16.444.645-17.819-.647-.024-1.189,17.67-5.336-16.778-.617.2,5.6,17.59-11.345-14.561-.511.4,11.6,14.894-16.033-10.011-.346.547,15.594,9.874-18.048-3.862-.135.633,18.378,3.933-18.632,2.655.086.642,18.292-2.459-16.308,8.642.3.572,36.583-19.275-.3-.573Z" transform="translate(-2761.944 -791.216)" fill="#f47458"/>
          <rect id="Rectangle_5079" data-name="Rectangle 5079" width="2.772" height="86.67" transform="translate(504.172 158.815) rotate(-27.794)" fill="#f47458"/>
          <path id="Path_19935" data-name="Path 19935" d="M3593.63,1121.479s28.071-20.837,31.918-29.816-4.085-7.966-4.085-7.966,11.335-16.06,8.326-21.367-9.268,1.471-9.268,1.471,5.259-21.727.687-22.935c-8.516-2.251-15.5,21.132-15.5,21.132s.627-9.708-4.7-8.4c-8.039,1.972-3.786,22.872-3.786,22.872s-2.562-3.706-6.971-.181c-7.909,6.326,3.387,45.191,3.387,45.191" transform="translate(-3051.065 -885.113)" fill="#355389"/>
          <path id="Path_19936" data-name="Path 19936" d="M3583.43,1076.815a6.368,6.368,0,0,1,8.159-.36s-4.252-20.9,3.786-22.872c5.331-1.308,4.72,7.985,4.72,7.985s6.971-22.968,15.488-20.717L3587.8,1121.4c-1.243-5.03-11.755-38.675-4.366-44.584" transform="translate(-3045.441 -885.099)" fill="#13375b"/>
          <path id="Path_19937" data-name="Path 19937" d="M3629.135,1343.271s19.086.3,29.4-2.371a13.558,13.558,0,0,0,5.3-2.646c5.937-4.986-1.346-5.374-1.346-5.374s13.748-7.3,13.548-12.164-4.861-3.886-4.861-3.886,9.5-8.512,7.551-12.639c-3-6.341-16.588,5.685-16.588,5.685s1.039-4.823-3.176-5.83c-6.356-1.519-12.805,16.554-12.805,16.554s3.04-8.141-1.327-7.237c-7.834,1.622-15.7,29.907-15.7,29.907" transform="translate(-3086.533 -1107.628)" fill="#86b1f2"/>
          <path id="Path_19938" data-name="Path 19938" d="M3441.731,1139.053s-25.533-21.788-28.647-30.565,4.369-7.331,4.369-7.331-9.81-15.967-6.626-20.835,8.729,1.962,8.729,1.962-3.686-20.991.738-21.863c8.239-1.625,13.234,23.274,13.234,23.274s1.351-7.991,5.471-6.2c6.12,2.655,1.963,18.259,1.963,18.259s2.779-7.337,6.759-3.716c7.141,6.5-5.991,47.019-5.991,47.019" transform="translate(-2900.324 -901.809)" fill="#355389"/>
          <path id="Path_19939" data-name="Path 19939" d="M3506.395,1090.671c-4.615-2.769-6.893.815-6.893.815s4.242-15.4-3.287-17.768c-4.992-1.567-4.985,7.707-4.985,7.707s-5.23-22.671-13.469-21.046l21.552,78.321c1.487-4.711,12.577-44.732,7.081-48.03" transform="translate(-2957.792 -901.768)" fill="#466eb6"/>
          <path id="Path_19940" data-name="Path 19940" d="M3332.874,1444.037s-28.048.01-31.949-.443.409-3.936.409-3.936-8.727.318-10.058-1.8,2.235-2.959,2.235-2.959-8.691-2.519-8.277-4.367c.773-3.442,10.372-1.2,10.372-1.2s-3.565-1.73-2.116-3.34c2.185-2.426,11.518,4.171,11.518,4.171s-3.5-6.628-1.436-7.468c3.708-1.506,29.3,21.345,29.3,21.345" transform="translate(-2794.037 -1209.921)" fill="#9bc1f9"/>
          <path id="Path_19941" data-name="Path 19941" d="M3415.851,1592.626h46.68a27.938,27.938,0,0,0,9.436-21.113,25.291,25.291,0,0,0-2.7-11.3l-60.185.676a26.78,26.78,0,0,0-2.489,11.7,27.772,27.772,0,0,0,9.257,20.035" transform="translate(-2897.262 -1326.939)" fill="#f47458"/>
        </g>
        <path id="Path_19964" data-name="Path 19964" d="M679.759,1777.014H203.485a1.908,1.908,0,0,0-1.96,1.687,1.848,1.848,0,0,0,1.895,1.927H679.759a1.809,1.809,0,1,0,0-3.614" transform="translate(-171.391 -1511.328)" fill="#184655"/>
        <g id="Group_12057" data-name="Group 12057" transform="translate(-54.317)">
          <path id="Path_19965" data-name="Path 19965" d="M2089.526,731.341a8.281,8.281,0,0,0-7.582,5l-2.407,5.263s-8.086,5.7-2.7,11.7c0,0-.365,6.9,5.369,9.669,2.939,1.417,7.572.859,7.572.859s9.715,3.373,14.493-.515c0,0,6.741-1.053,8.577-5.454.893-2.141-.684-2.319.343-3.907,1.769-2.735,1.664-5.633-.993-7.631a13.265,13.265,0,0,1-4.489-6.652c-2.8-7.729-9.069-11.12-18.185-8.339" transform="translate(-1764.75 -621.178)" fill="#13375b"/>
          <path id="Path_19966" data-name="Path 19966" d="M1968.675,683.775a8.74,8.74,0,0,0,4.385-2.438c1.583-1.434,5.231-2.7,4.176-3.486s-3.929,1.571-3.966.594,5.643-6.266,4.687-6.976-5.994,4.605-6.027,3.731,5.087-5.266,3.735-6.27-5.553,5.67-6.278,5.131,2.033-4.686.945-5.495-3.495,5.82-3.515,5.306.018-4.238-.738-4.209c-.855.032-1.365,7.923-2.824,9.189s-14.916,18.154-14.012,21.725,16.631,15.766,20.574,15.967,7.234-2.6,7.141-5.071-15.244-13.272-15.274-14.047,6.99-13.65,6.99-13.65" transform="translate(-1657.77 -568.548)" fill="#f7a491"/>
          <path id="Path_19967" data-name="Path 19967" d="M2041.58,898c.215-1.706-.28-4.328-3.55-7.034-3.493-2.891-14.459-10.585-14.459-10.585l-9.094,11.819s10.495,9.907,15.533,11.934c8.4,3.379,11.149-2.8,11.57-6.135" transform="translate(-1713.287 -748.75)" fill="#294270"/>
          <path id="Path_19968" data-name="Path 19968" d="M1877.845,1248.487c6.42-7.025,31.782-1.67,31.782-1.67l30.118-.632,4.788,10.363-12.045,16.95s-20.351-4.051-22.45-9.071l-30.095-6.351s-5.125-6.277-2.1-9.589" transform="translate(-1596.271 -1058.741)" fill="#444"/>
          <path id="Path_19970" data-name="Path 19970" d="M2101.924,944.253a15.332,15.332,0,0,0-12.177,2.366c-4.035,3-4.819,8.491-5.583,13.156a113.435,113.435,0,0,0-1.4,18.954c.008,1.485.167,16.482,1.729,16.64.013,0,25.025,2.521,31.443-4.5a26.507,26.507,0,0,1-3.564-12.841c.007-8.063,2.616-21.645,2.441-24.755-.326-5.782-7.908-7.879-12.477-8.928-.137-.032-.276-.062-.414-.09" transform="translate(-1771.364 -802.773)" fill="#355389"/>
          <path id="Path_19971" data-name="Path 19971" d="M2143,1185.005s21.3,14.558,23.4,20.254-.515,13.4-5.015,16.313-13.748-.194-16.74-2.866-6.861-20.272-6.861-20.272Z" transform="translate(-1818.163 -1007.831)" fill="#575757"/>
          <path id="Path_19972" data-name="Path 19972" d="M1878.951,1264.738c6.437,3.607,16.747,13.6,24.258,15.779a59.586,59.586,0,0,1,12.217,4.907s4.192,3.065,2.422,5-6.824,4.578-18.358-3.341c-1.41-.968-6.3-2.636-13.009-5.112s-16.433-4.723-18.716-5.932c-5.166-2.735-3.12-10.854-.391-12.839s7.191-.922,11.576,1.535" transform="translate(-1585.8 -1073.457)" fill="#f48c7f"/>
          <path id="Path_19973" data-name="Path 19973" d="M1910.661,1225.926c-.525-3.159,9.973-8.65,13.388-12.817,5.082-8.265,10.3-40.529,22.658-37.362h0a6.762,6.762,0,0,1,4.122,1.932c2.719,2.635,3.186,4.3,1.062,9.708-2.278,5.8-15.749,21.947-19.984,26.514-5.341,5.758-8.531,12-10.377,14.065-2.727,3.053-10.7-1-10.869-2.039" transform="translate(-1624.977 -999.772)" fill="#f79c8d"/>
          <path id="Path_19974" data-name="Path 19974" d="M2160.164,879.885s1.964,8.4-.3,10.937c-2.39,2.676,9.636.878,10.115-3.218.258-2.214-2.288-11.64-2.288-11.64Z" transform="translate(-1836.67 -744.996)" fill="#f7a491"/>
          <path id="Path_19975" data-name="Path 19975" d="M2171.184,875.965l-7.527,3.921a35.876,35.876,0,0,1,.692,4.446,9.87,9.87,0,0,0,6.3-2.109,13.306,13.306,0,0,0,1.728-1.479c-.589-2.547-1.192-4.779-1.192-4.779" transform="translate(-1840.162 -744.997)" fill="#f48c7f"/>
          <path id="Path_19976" data-name="Path 19976" d="M2122.989,757.358a10.794,10.794,0,0,1,6.3,4.025c2.508,3.393,4.677,13.677-2.654,18.948s-13.633-1.244-14.108-7.919,1.691-15.467,10.466-15.054" transform="translate(-1796.621 -644.112)" fill="#f7a491"/>
          <path id="Path_19977" data-name="Path 19977" d="M2228.437,831.094c-.454,1.768.148,3.449,1.343,3.755s2.531-.878,2.984-2.646-.148-3.449-1.343-3.756-2.531.879-2.984,2.646" transform="translate(-1895.129 -704.543)" fill="#f7a491"/>
          <path id="Path_19978" data-name="Path 19978" d="M2166.327,751.438s.937,8.016,11.055,10.858,7.887,6.163,7.887,6.163a8.637,8.637,0,0,0-2.559-9.886c-5.048-4.508-6.7-5.877-8.6-7.573s-7.784.439-7.784.439" transform="translate(-1842.434 -638.158)" fill="#13375b"/>
          <path id="Path_19979" data-name="Path 19979" d="M2087.939,1068.1a8.74,8.74,0,0,0-4.959-.76c-2.13.163-5.79-1.07-5.437.2s4.067,1.166,3.5,1.961-8.3,1.495-7.978,2.642,7.559.033,7.049.744-7.247,1.045-6.794,2.667,7.863-1.079,8.106-.208-4.479,2.458-4.114,3.764,6.328-2.458,6.029-2.04-2.611,3.338-2,3.779c.7.5,5.934-5.425,7.862-5.532s22.912-5.208,24.385-8.585-3.483-22.65-6.477-25.225-7.312-2.376-8.75-.368,3.916,19.829,3.464,20.459-13.887,6.506-13.887,6.506" transform="translate(-1763.105 -884.164)" fill="#f7a491"/>
          <path id="Path_19980" data-name="Path 19980" d="M2203.042,957.724c-1.216,1.216-2.431,3.592-1.5,7.735.99,4.425,4.942,17.224,4.942,17.224l14.428-3.769s-2.224-14.26-4.963-18.949c-4.566-7.815-10.528-4.617-12.9-2.241" transform="translate(-1872.102 -812.227)" fill="#3d5e9b"/>
        </g>
        <path id="Path_19981" data-name="Path 19981" d="M2367.577,765.888a9.3,9.3,0,0,0,.423-5.327c-.339-2.25.689-6.234-.63-5.762s-.924,4.411-1.813,3.866-2.233-8.7-3.428-8.277.552,8.035-.244,7.548-1.674-7.622-3.364-7.017,1.758,8.273.851,8.6-2.961-4.572-4.322-4.086,3.105,6.538,2.637,6.251-3.752-2.521-4.173-1.834c-.476.777,6.23,5.893,6.493,7.934s7.316,23.951,11.021,25.26,23.814-5.421,26.32-8.8,1.959-7.95-.288-9.326-20.781,5.667-21.487,5.235-8-14.263-8-14.263" transform="translate(-2057.055 -638.181)" fill="#f7a491"/>
        <path id="Path_19982" data-name="Path 19982" d="M2527.452,891.732c2.056-2.056,18.666-8.853,23.413-8.439a7.394,7.394,0,0,1,5.921,3.556,6.9,6.9,0,0,1-.326,7.58c-3.23,5.086-25.583,12.279-26.521,10.927-.875-1.261-2.6-13.509-2.487-13.623" transform="translate(-2205.003 -751.214)" fill="#294270"/>
        <path id="Path_19983" data-name="Path 19983" d="M2450.369,1290.78s-31.694,3.282-40.581,3.046-10.951-7.829-9.859-11.617c1.622-5.629,6.8-8.613,6.8-8.613l18.481,2.979s-2.032,4.742-3.769,10.328c-.144.462,11.538-6.6,24.717-3.436,2.892.694,5.825-2.9,7.387-2.737s19.872,7.959,19.723,9.409-22.9.641-22.9.641" transform="translate(-2096.324 -1083.177)" fill="#f48c7f"/>
        <path id="Path_19984" data-name="Path 19984" d="M2483.158,1212.816s.347,5.881-.758,7.367c-8.286,11.149-35.849,11.879-35.849,11.879s-9.027-8.742-12.965-11.034c-2.517-1.465-3.485-.173-4.4-.516,1.573-3.5,33.5-11.4,33.5-11.4Z" transform="translate(-2121.435 -1028.335)" fill="#434343"/>
        <path id="Path_19986" data-name="Path 19986" d="M2512.709,1341.457s-31.193,6.508-40.056,7.181-11.694-6.668-11-10.547c1.038-5.765,5.883-9.263,5.883-9.263l18.689,1.072s-1.536,4.925-2.693,10.659c-.1.474,10.8-7.746,24.236-5.946,2.948.395,5.5-3.478,7.069-3.478s16.606,10.771,16.606,12.23-18.738-1.908-18.738-1.908" transform="translate(-2148.964 -1130.151)" fill="#f7a491"/>
        <path id="Path_19987" data-name="Path 19987" d="M2534.056,1196.458s.947,5.814,0,7.405c-7.1,11.939-34.447,15.484-34.447,15.484s-9.873-7.772-14.025-9.649a7.4,7.4,0,0,0-5.13-.305l29.584-23.086Z" transform="translate(-2165.037 -1008.939)" fill="#575757"/>
        <path id="Path_19988" data-name="Path 19988" d="M2614.264,880.548s7.719-1.657,14.424,5.608c6.468,7.008,13.277,53.373,13.277,53.373s-18.289,5.386-25.358,0a95.033,95.033,0,0,1-10.543-9.063s-1.513-11.705-2.074-16-3.552-17.4-.756-27.555c.952-3.462,11.031-6.363,11.031-6.363" transform="translate(-2268.459 -748.757)" fill="#355389"/>
        <path id="Path_19989" data-name="Path 19989" d="M2608.409,786.46l.5,5.536,4.637,8.514s-9.143,11.817-11.966,8.993c-.631-.631-2.222-13.138-2.222-13.138Z" transform="translate(-2266.163 -668.874)" fill="#f7a491"/>
        <path id="Path_19990" data-name="Path 19990" d="M2608.909,792l.969,1.889a33.512,33.512,0,0,1-9.965,6.6c-.323-2.3-.555-4.125-.555-4.125l9.05-9.9Z" transform="translate(-2266.163 -668.874)" fill="#f48c7f"/>
        <path id="Path_19991" data-name="Path 19991" d="M2550.707,660.872s-4.807,5.175-5.643,6.541c-3.462,5.662-3.368,20.072-.769,21.817,4.362,2.928,14.634-.175,20.882-4.7s8.221-11.85,2.5-18.219-16.972-5.442-16.972-5.442" transform="translate(-2217.721 -562.022)" fill="#f7a491"/>
        <path id="Path_19992" data-name="Path 19992" d="M2588.724,634.981a64,64,0,0,0-13.53-3.639,9.72,9.72,0,0,0-3.346-.1,4.735,4.735,0,0,0-3.623,4.507l-.129,4.878s3.666-1.857,5.678-.652.134,6.191,1.516,8.466,3.892,2.241,4.439,4.421-1.53,8.737,2.237,10.992c3.642,2.179,7.151-.388,9.334-3.315a23.823,23.823,0,0,0,4.424-12.07c.828-9.054-1.289-11.26-7-13.493" transform="translate(-2239.575 -536.773)" fill="#b75742"/>
        <path id="Path_19994" data-name="Path 19994" d="M2435.166,976.877a9.3,9.3,0,0,0-3.972-3.575c-1.992-1.1-4.53-4.337-4.958-3s2.94,3.416,1.967,3.79-8.269-3.52-8.656-2.311,6.714,4.448,5.843,4.784-7.068-3.307-7.616-1.6,7.636,3.635,7.342,4.552-5.43-.429-5.871.946,7.079,1.511,6.566,1.708-4.283,1.445-3.994,2.2c.327.85,8.467-1.362,10.247-.33s23.463,8.756,26.755,6.611,10.177-22.2,9.021-26.245-5.12-6.39-7.579-5.442-8.139,19.943-8.91,20.241-16.185-2.326-16.185-2.326" transform="translate(-2111.706 -815.407)" fill="#f7a491"/>
        <path id="Path_19995" data-name="Path 19995" d="M2665.257,897.678c2.073,5.656-3.916,29.275-5.373,28.513l-15.338-8.031c.591-2.847,5.255-19.3,8.47-22.812a7.393,7.393,0,0,1,6.423-2.538,6.9,6.9,0,0,1,5.819,4.868" transform="translate(-2304.594 -759.274)" fill="#3d5e9b"/>
        <path id="Path_19996" data-name="Path 19996" d="M2416.781,817.246a4.416,4.416,0,0,0-1.18,1.272,4.62,4.62,0,0,0-.586,3.7,7.862,7.862,0,0,1,1.766-4.976" transform="translate(-2053.799 -695.057)" fill="#f48c7f"/>
        <g id="Group_12056" data-name="Group 12056" transform="translate(-48.394)">
          <path id="Path_19942" data-name="Path 19942" d="M1178.3,333.923c-1.005-6.077-2.051-12.179-7.915-16.825a17.523,17.523,0,0,0-16.307-2.882c-16.135,4.828-6.145,14.116-27.479,24.4-22.066,10.636-17.291,31.065-10.806,37.386,31.03,30.244,58.379-5.131,60.368-14.485,1.48-6.959,2.786-23.679,2.139-27.592" transform="translate(-944.349 -266.517)" fill="#b75742"/>
          <path id="Path_19943" data-name="Path 19943" d="M1014.112,743.757c-.149.089,1.43,1.877,2.774,3.615s4.137,3.8,3.705,4.117c-.335.243-2.2-.836-3.69-2.121.272.461.334.758.026.739-1.272-.082-6-4.034-9.126-9.314s-18.932-39.291-13.24-41.412c2.094-.78,19.8-5.474,24.419-6.678l2.244,15.852h-15.909a148.6,148.6,0,0,0,5,22.41c.548,1.682,3.31,2.606,3.823,2.963,2.813,1.956,6.388,4.533,6.3,5.891s-2.422-.839-4.3-1.491.25,7.094,5.771,10.636-2.174,1.513-3.569-.233-3.994-5.117-4.233-4.974" transform="translate(-844.819 -589.134)" fill="#f7a491"/>
          <path id="Path_19944" data-name="Path 19944" d="M1590.422,623.742c-.237-.268-.427.091-.579.752-.27-2.084-1.241-4.457-1.681-4.534-.544-.1.468,3.344.169,5.527s-.35,4.755-.524,4.708c-.279-.074.176-3.031.444-5.257s-3.713-10.484-2.3-4.019-2.73,13.388-3.615,11.575-.969-5.032-2.031-4.152.175,5.215.257,8.663a13.891,13.891,0,0,0,.889,2.736,1.663,1.663,0,0,1-.466,1.859l-15.218,11.724-8.573-13.488-13.237,7.833s11.2,19.557,21.7,18.074c4.189-.592,18.642-16.286,23.135-24.36,4.446-7.99,2.644-16.49,1.63-17.639" transform="translate(-1313.117 -526.021)" fill="#f7a491"/>
          <path id="Path_19945" data-name="Path 19945" d="M1526.4,650.854c4.338,2.07,17.425,21.948,17.425,21.948l-12.493,12.24-8.247-10.765s-2.022-25.97,3.315-23.423" transform="translate(-1295.046 -553.393)" fill="#f7cc7f"/>
          <path id="Path_19946" data-name="Path 19946" d="M1147.532,637.46s-2.684.1-9.485,2.277c-7.44,2.383-21.4,5.862-21.4,5.862l7.456,16.578,24.911-2.96s2.429-21.756-1.479-21.756" transform="translate(-949.692 -542.152)" fill="#f7cc7f"/>
          <path id="Path_19947" data-name="Path 19947" d="M1330.225,696.591c-6.685,3.552-30.835,2.976-30.835,2.976-.638-6.686-6.766-27.332-8.255-41.713-1.871-10.008,2.366-10.133,4.4-25.077.014-.1,10.374-.823,10.374-.823l10.781.266s9.379.755,12.361,2.709c.207.136,1.394,17.025.466,28.99-.633,8.159-1.558,14.745-1.5,20.138a33.941,33.941,0,0,0,2.2,12.533" transform="translate(-1097.698 -537.469)" fill="#fae0b2"/>
          <path id="Path_19948" data-name="Path 19948" d="M1203.772,1062.741l-24.951,20.207s46.381,24.235,62.469,19.639l4.387-21.937-10.578-17.681Z" transform="translate(-1002.572 -903.847)" fill="#355389"/>
          <path id="Path_19949" data-name="Path 19949" d="M1056.381,1203.408s-17.031-5.718-29,.9-21.692,22.312-16.806,25.918c3.785,2.4,23.64,3.635,36.777,1.254s18.681-23.845,9.024-28.068" transform="translate(-858.387 -1021.531)" fill="#13375b"/>
          <path id="Path_19950" data-name="Path 19950" d="M1035.7,1255.044a6.191,6.191,0,0,0,.889,8.205c2.646,2.573,42.918,15.8,56.719,20.182,10.761,3.414,26.724,9.814,31.109,11.424s20.287,4.675,20.682,4.232c1.082-1.215-.349-4.09-3.5-5.486s-5.522-1.172-11.151-6.6-8.708-2.362-10.534-1.619-69.851-36.107-69.851-36.107-9.884-.7-14.363,5.773" transform="translate(-879.858 -1062.47)" fill="#f48c7f"/>
          <path id="Path_19951" data-name="Path 19951" d="M1055.84,1067.6s-34.584,9.434-42.076,12.609c-14.06,5.959-10.94,30.681-9.8,34.708,0,0,7.307-20.288,19.156-20.136l3.776-9.523Z" transform="translate(-852.916 -907.979)" fill="#355389"/>
          <path id="Path_19952" data-name="Path 19952" d="M1166.433,1065.666s-42.967-19.982-62.565-7.273c0,0-9.17,5.889-7.791,15.036.781,5.181,6.208,9.924,6.208,9.924s17.97-10.66,23.957-7.286,27.718,25.146,34.993,25.594c11.33.7,28.736-22.572,5.2-35.994" transform="translate(-932.078 -896.552)" fill="#466eb6"/>
          <path id="Path_19953" data-name="Path 19953" d="M1166.444,1177.432c-4.373-3.246-14.831-10.557-22.841-9.617s-12.092,6.573-9.53,12.127c1.5,3.257,64.571,34.765,67.337,37.154s15.062,7.284,18.973,7.964,10.865,3.373,11.661,2.451-2.094-5.029-6.274-6.6-9.147-8.376-11.259-10.864-2.594-4.518-7.643-2.389c-2.435,1.027-30.292-22.7-40.424-30.222" transform="translate(-963.867 -993.141)" fill="#f7a491"/>
          <path id="Path_19954" data-name="Path 19954" d="M1318.787,709.262c.358,10.567-10.134,13.465-21.833,13.465s-21.183-5.176-21.183-11.561,7.777-14.979,19.47-15.368c14.635-.487,23.272,5.371,23.546,13.465" transform="translate(-1085.027 -591.742)" fill="#fae0b2"/>
          <path id="Path_19955" data-name="Path 19955" d="M1395.078,505.712s-.247,1.763-.627,4.194c-.7,4.449-1.05,11.75-1.943,13.968-.786,1.953.581,15.945,6.2,15.945,6.47,0,5.9-12.407,6.1-14.809.2-2.38.843-10.527,1.268-15.955.231-2.937.4-5.078.4-5.078Z" transform="translate(-1184.136 -428.627)" fill="#f7a491"/>
          <path id="Path_19956" data-name="Path 19956" d="M1418.433,508.957c.218-2.873.377-4.98.377-4.98l-11.394,1.734s-.288,1.658-.6,4c4.619,2.68,8.773,1.834,11.622-.758" transform="translate(-1196.475 -428.626)" fill="#f47458"/>
          <path id="Path_19957" data-name="Path 19957" d="M1380.411,342.37a12.942,12.942,0,0,0-7.264,5.244c-2.773,4.232-4.676,16.691,4.458,22.506s16.237-2.411,16.355-10.434-1.6-18.731-13.548-17.316" transform="translate(-1165.896 -291.073)" fill="#f7a491"/>
          <path id="Path_19958" data-name="Path 19958" d="M1513.615,416.953c-.779,1.936-2.325,3.138-3.453,2.684s-1.411-2.391-.631-4.327,2.325-3.138,3.453-2.684,1.41,2.391.631,4.328" transform="translate(-1283.462 -350.851)" fill="#f7a491"/>
          <path id="Path_19960" data-name="Path 19960" d="M1357.808,452.26c.608,1.916.052,3.8-1.243,4.214s-2.838-.809-3.446-2.725-.052-3.8,1.243-4.214,2.838.809,3.446,2.725" transform="translate(-1150.6 -382.256)" fill="#f7a491"/>
          <path id="Path_19961" data-name="Path 19961" d="M1795.985,622.2c-.237-.268-1.66,1.637-1.812,2.3-.27-2.084-1.241-4.457-1.681-4.535-.544-.1.468,3.344.169,5.527s-.35,4.755-.524,4.708c-.279-.074.176-3.031.444-5.257s-3.713-10.484-2.3-4.02-2.73,13.388-3.615,11.575-.969-5.032-2.031-4.152.175,5.215.257,8.663a13.892,13.892,0,0,0,.889,2.736,1.664,1.664,0,0,1-.466,1.859l5.571,3.353c.9-1.328,1.659-2.539,2.234-3.571,4.446-7.99,3.878-18.036,2.863-19.186" transform="translate(-1517.446 -526.02)" fill="#f7a491"/>
          <path id="Path_19962" data-name="Path 19962" d="M1834.466,577.462l-4.091,24.193.268.107a1.719,1.719,0,0,0,2.252-.736l3.809-20.819c.171-.914.36-2.518-2.239-2.745" transform="translate(-1556.711 -491.124)" fill="#355389"/>
          <path id="Path_19963" data-name="Path 19963" d="M1801.036,575.765l-2.715,20.361a1.24,1.24,0,0,0,.709,1.29l4.158,1.919a1.24,1.24,0,0,0,1.746-.937l3.382-21.869a1.24,1.24,0,0,0-1.121-1.425l-4.825-.41a1.24,1.24,0,0,0-1.335,1.072" transform="translate(-1529.44 -488.765)" fill="#184655"/>
          <g id="Group_12054" data-name="Group 12054" transform="translate(31.155 -51.211)">
            <g id="Group_12055" data-name="Group 12055" transform="translate(-8.839 41.304)">
              <path id="Path_19831" data-name="Path 19831" d="M254.659,107.594a1.011,1.011,0,0,1-.252-.734,1.8,1.8,0,0,0-1.685-1.911,1.013,1.013,0,1,1,.126-2.023,3.83,3.83,0,0,1,3.582,4.061,1.014,1.014,0,0,1-1.772.607" transform="translate(6.185 -12.298)" fill="#1d262d"/>
              <path id="Path_19832" data-name="Path 19832" d="M258.366,100.641a1.011,1.011,0,0,1-.251-.734,5.064,5.064,0,0,0-4.74-5.372,1.013,1.013,0,0,1,.126-2.023,7.092,7.092,0,0,1,6.637,7.523,1.014,1.014,0,0,1-1.772.607" transform="translate(5.736 -5.141)" fill="#1d262d"/>
              <path id="Path_19833" data-name="Path 19833" d="M262.072,93.688a1.011,1.011,0,0,1-.251-.735,8.327,8.327,0,0,0-7.793-8.834,1.013,1.013,0,1,1,.124-2.023,10.355,10.355,0,0,1,9.692,10.986,1.014,1.014,0,0,1-1.772.606" transform="translate(5.289 2.017)" fill="#1d262d"/>
            </g>
          </g>
        </g>
      </g>
    </g>
  </g>
</svg>
