<svg xmlns="http://www.w3.org/2000/svg" xmlns:xlink="http://www.w3.org/1999/xlink" width="346.577" height="476.06" viewBox="0 0 346.577 476.06">
  <defs>
    <linearGradient id="linear-gradient" x1="0.5" x2="0.5" y2="1" gradientUnits="objectBoundingBox">
      <stop offset="0" stop-color="#ffdffd"/>
      <stop offset="1" stop-color="#dccdfb"/>
    </linearGradient>
    <clipPath id="clip-path">
      <rect id="Rectangle_5083" data-name="Rectangle 5083" width="244.824" height="476.06" fill="none"/>
    </clipPath>
  </defs>
  <g id="Group_14779" data-name="Group 14779" transform="translate(-823.423 -400.559)">
    <path id="Subtraction_5" data-name="Subtraction 5" d="M-15171.5-2660a152.618,152.618,0,0,1-30.532-3.078,150.713,150.713,0,0,1-28.437-8.828,151.54,151.54,0,0,1-25.735-13.968,152.622,152.622,0,0,1-22.421-18.5,152.574,152.574,0,0,1-18.5-22.422,151.561,151.561,0,0,1-13.969-25.734,150.712,150.712,0,0,1-8.827-28.438A152.578,152.578,0,0,1-15323-2811.5a152.58,152.58,0,0,1,3.078-30.532,150.7,150.7,0,0,1,8.827-28.438,151.561,151.561,0,0,1,13.969-25.734,152.589,152.589,0,0,1,18.5-22.422,152.6,152.6,0,0,1,22.421-18.5,151.5,151.5,0,0,1,25.735-13.969,150.7,150.7,0,0,1,28.438-8.828A152.611,152.611,0,0,1-15171.5-2963a152.6,152.6,0,0,1,30.532,3.078,150.686,150.686,0,0,1,28.438,8.828,151.572,151.572,0,0,1,25.735,13.969,152.6,152.6,0,0,1,22.421,18.5,152.607,152.607,0,0,1,18.5,22.422,151.561,151.561,0,0,1,13.968,25.734,150.707,150.707,0,0,1,8.828,28.438A152.651,152.651,0,0,1-15020-2811.5a152.649,152.649,0,0,1-3.078,30.532,150.7,150.7,0,0,1-8.828,28.438,151.579,151.579,0,0,1-13.968,25.734,152.592,152.592,0,0,1-18.5,22.422,152.635,152.635,0,0,1-22.421,18.5,151.571,151.571,0,0,1-25.735,13.968,150.7,150.7,0,0,1-28.438,8.828A152.611,152.611,0,0,1-15171.5-2660Zm0-243.955a92.559,92.559,0,0,0-92.454,92.455,92.559,92.559,0,0,0,92.454,92.455,92.56,92.56,0,0,0,92.455-92.455A92.56,92.56,0,0,0-15171.5-2903.955Z" transform="translate(16190 3410.001)" fill="url(#linear-gradient)"/>
    <g id="Group_12060" data-name="Group 12060" transform="translate(823.423 400.555)">
      <g id="Group_12059" data-name="Group 12059" transform="translate(0 0.004)" clip-path="url(#clip-path)">
        <path id="Path_19997" data-name="Path 19997" d="M156.466,672.771,141.3,685.477,108.654,718.4s-11.346,10.044-14.477,12.159c-5.54,3.736-15.163,10.519-21.037,19.523-7.19,11.027-14.476,23.268-19.765,38.9-10.078,17.713-30.985,7.731-40.507-1.21C8.586,783.749,4.836,776.385,2.5,768.5c-2.85-9.652-3.575-20.089-.551-26.127,2.235-4.456,4.3-8.163,6.333-11.438a.025.025,0,0,1,.01-.02A106.17,106.17,0,0,1,16.991,718.9c.15-.184.29-.353.416-.508l33.443-20.065L89.135,675.36Z" transform="translate(0 -455.954)" fill="#ffbd94"/>
        <path id="Path_19998" data-name="Path 19998" d="M519.705,463.389c-3.461,2-10.882,4.189-10.882,4.189s7.968,5.828,10.7,10.2a8.24,8.24,0,0,1-.008,8.492v.008a6.938,6.938,0,0,1-6.367,3.157,32.206,32.206,0,0,1,3.771,4.166.007.007,0,0,0,.007.008c2.664,3.559,5,8.56.228,11.49l.008.007a11.243,11.243,0,0,1,2.049,2.353c1.571,2.466,2.345,6.329-5.335,8.932-11.839,4.007-23.859,0-23.859,0l5.464-66.842s21.127,2.368,24.223,3.825c2.019.949,2.876,4.075,2.269,6.686a5.06,5.06,0,0,1-2.269,3.332" transform="translate(-332.096 -304.67)" fill="#ffbd94"/>
        <path id="Path_19999" data-name="Path 19999" d="M268.973,661.757s-1.791,22.493-4.493,30.689,5.936-7.864,9.032-10.96.323,23.316,2.1,23.457,4.928-25.975,5.657-27.067,7.285,7.467,8.2,9.471.43-9.676,2.069-10.041,4.748.691,7.992-2.963c2.943-3.314,12.9-1.856,19.741-1.987a59.469,59.469,0,0,0,9.465-1.492l-53.473-9.107Z" transform="translate(-178.895 -448.489)" fill="#ffa080"/>
        <path id="Path_20000" data-name="Path 20000" d="M547.255,478.825a5.063,5.063,0,0,1-2.269,3.332c-3.461,2-10.882,4.189-10.882,4.189s-4.963-.729-5.145-1.275-1.639-7.832-1.639-7.832c4.325,2.55,14,5.547,19.936,1.586" transform="translate(-357.376 -323.437)" fill="#ffa080"/>
        <path id="Path_20001" data-name="Path 20001" d="M542.163,555.243v.008a6.938,6.938,0,0,1-6.367,3.157l-6.769-1.639-5.592-5.449c.577.364,12.149,7.589,18.729,3.923" transform="translate(-354.743 -373.644)" fill="#ffa080"/>
        <path id="Path_20002" data-name="Path 20002" d="M547.179,574.031c-2.785-2.186-11.239-3.164-12.514-3.164l1.973-2.641,6.769,1.639a32.192,32.192,0,0,1,3.772,4.166" transform="translate(-362.355 -385.101)" fill="#ffa080"/>
        <path id="Path_20003" data-name="Path 20003" d="M541.947,615.849c-3.862.235-10.64,1.108-14.806,4.288-6.1,4.644-2.55-10.654-2.55-10.654s6.374,6.466,15.3,4.007l.008.007a11.241,11.241,0,0,1,2.049,2.353" transform="translate(-354.831 -413.061)" fill="#ffa080"/>
        <path id="Path_20004" data-name="Path 20004" d="M347.863,307.874H279.169c-5.1,0-8.894-3.585-8.894-8.681V140.4a13.113,13.113,0,0,1,13.113-13.114h60.923c2.938,0,1.559-1.656,4.2-.968,9.909,2.584,8.915,9.777,8.915,14.082l.028,156.724c0,5.828-4.493,10.746-9.59,10.746" transform="translate(-183.172 -85.5)" fill="#431d73"/>
        <path id="Path_20005" data-name="Path 20005" d="M343.487,303.744H274.793a9.228,9.228,0,0,1-9.228-9.228V135.727a13.113,13.113,0,0,1,13.113-13.113H339.6a13.114,13.114,0,0,1,13.113,13.113V294.516a9.228,9.228,0,0,1-9.228,9.228" transform="translate(-179.98 -83.1)" fill="#190b2b"/>
        <rect id="Rectangle_5081" data-name="Rectangle 5081" width="78.589" height="160.64" transform="translate(90.078 52.628)" fill="#fff"/>
        <path id="Path_20006" data-name="Path 20006" d="M54.014,520.576c5.464-6.557,21.856-21.947,26.5-40.069s9.562-30.689,14.206-40.251,4.553-19.579,6.739-26.318,4.918-12.339,6.193-24.292c.759-7.141,3.87-9.236,6.83-8.682a7.672,7.672,0,0,1,5.008,4.015c2.7,5.1,6.511,13.068,2,28.913a50,50,0,0,1-.41,22.539c-3.142,11.474,4.358,17.1,4.718,25.3.355,8.093-.058,15.812-.058,15.812Z" transform="translate(-36.607 -258.133)" fill="#ffbd94"/>
        <path id="Path_20007" data-name="Path 20007" d="M78.147,510.649s-13.659,5.192-25.677,0-11.022.915-18.942,3.919-11.747,11.08-16.121,19.276c-2.613,4.9-9.8,22.76-14.9,36.835-2.85-9.653-3.575-20.089-.551-26.127,2.235-4.456,4.3-8.162,6.333-11.438a.025.025,0,0,1,.01-.019c3.672-5.254,6.9-9.759,8.694-12.009l.416-.508c5.462-6.556,21.855-21.947,26.5-40.067s9.566-30.689,14.21-40.255,4.553-19.576,6.735-26.316,4.921-12.338,6.193-24.293c.76-7.142,3.871-9.232,6.832-8.68-2.269,6.14-6.1,18.516-6.1,23.229,0,6.285-5.738,15.028-6.285,20.491s-5.192,29.78-6.832,33.878-9.831,30.322-9.285,34.42a29.4,29.4,0,0,0,1.476,7.529,10.779,10.779,0,0,0,5.806,5.951c7.156,3.276,21.492,4.185,21.492,4.185" transform="translate(0 -258.134)" fill="#ffa080"/>
        <path id="Path_20008" data-name="Path 20008" d="M220.007,387.363c-1.608-3.149-2-7.58.546-14.411,2.493-6.693,4.3-6.42,5.555-.759,1.221,5.522-2.588,22.052-6.1,15.17" transform="translate(-148.233 -249.361)" fill="#ff578c"/>
        <path id="Path_20009" data-name="Path 20009" d="M180.006,835.7c-.551.653-1.721,2.146-1.721,2.146-2.47.072-5.812-4.151-6.617-6.868-1.366-4.644-14.965-18.213-17.758-22.4-6.01-9.015,11.14,6.921,12.431,9.016,3.278,5.327,11.343,10.959,12.708,14.784a30.625,30.625,0,0,1,.957,3.324" transform="translate(-103.445 -546.138)" fill="#ffa080"/>
        <path id="Path_20010" data-name="Path 20010" d="M427.737,878.162c1.962,7.307,4.455,11.393,5.446,17.293,1.813,10.8-5.472,21.529-20.057,24.082-17.915,3.136-43.1-5.152-47.029-14.979-3.761-9.4-7.979-30.494-7.979-30.494s-3.825-15.3-8.2-19.943a71.956,71.956,0,0,1-13.933-22.129c-4.1-10.108-10.928-24.041-14.206-32.51s-2.185-13.66-4.644-21.856-8.2-25.681-8.742-30.325-3.825-15.845-2.459-22.4c.7-3.347,3.946-4.417,7.7-3.536h.008A17.668,17.668,0,0,1,323.968,729c5.464,8.469,9.288,14.753,9.562,23.495.114,3.7,1.449,9.061,3.164,13.956,2.337,6.67,5.365,12.468,6.943,12,2.732-.82,2.186-24.861-.547-35.242s-9.341-34.225-11.186-42.619-1.108-11.747-1.655-18.669-.971-21.575,1.609-24.261a8.9,8.9,0,0,1,5.486-2.277c3.468-.243,7.331,1.5,8.477,8.052,1.912,10.935,2.277,24.132,4.462,29.961s4.553,15.117,6.739,21.856,4.371,9.289,4.371,9.289a.078.078,0,0,1,.03-.015,15.9,15.9,0,0,1,8.924-.41,12.535,12.535,0,0,1,6.526,4.25c6.193,7.467,7.1,8.56,7.1,8.56a5.436,5.436,0,0,1,2.922-.007h.008c2.2.5,5.5,2.178,9.456,7.111,7.285,9.107,7.467,9.471,10.381,11.839s13.3,7.467,16.392,13.113,4.918,10.564,4.553,16.938-5.646,58.919-4.553,64.11,2.737,21.2,4.6,28.139" transform="translate(-207.117 -444.151)" fill="#ffbd94"/>
        <path id="Path_20011" data-name="Path 20011" d="M366.1,1045.733c2.033,5.084,9.754,9.755,19.213,12.646-3.316-9.788-9.731-26.849-12.046-35.335-6.322-23.178-15.5-47.726-19.856-51.035-5.49-4.172-16.215-27.74-21.679-32.657s-7.4-25.634-8.718-29.43c-1.689-4.852-5.174-11.017-7.307-13.066s-2.254-11.795-1.571-12.888,5.816-1.16,5.554-6.966a19.251,19.251,0,0,0-6.806-13.159s-6.246-1.116-6.944,2.231c-1.366,6.557,1.912,17.758,2.459,22.4s6.283,22.128,8.742,30.325,1.366,13.386,4.644,21.856,10.109,22.4,14.207,32.51A71.944,71.944,0,0,0,349.922,995.3c4.372,4.644,8.2,19.943,8.2,19.943s4.218,21.09,7.979,30.494" transform="translate(-207.117 -585.327)" fill="#ffa080"/>
        <path id="Path_20012" data-name="Path 20012" d="M407.3,761.827c-.91,8.924-2.932,18.674-4.968,21.332-1.941,2.534-5.123.965-6.47,3.347s-1.161,9.638-.8,11.031c.354,1.348-.974,2.756-2.978-8.186-1.691-9.232-2.918-8.968-4.064-14.109a15.884,15.884,0,0,1-.376-4.445c2.337,6.671,5.365,12.469,6.943,12,2.732-.819,2.186-24.861-.546-35.242s-9.342-34.226-11.186-42.619-1.108-11.748-1.655-18.669-.971-21.575,1.609-24.261c1.032-1.085,1.378,1.878,2.307,4.665s.378,4.816.348,11.612a43.942,43.942,0,0,0,1.974,13.813c2.259,6.769,6.069,8.715,8.826,10.341,3.183,1.877-4.372,3.41-4.993,5.769-1.11,4.217,6.011,27.96,9.29,32.878s7.646,11.821,6.735,20.746" transform="translate(-258.075 -448.501)" fill="#ffa080"/>
        <path id="Path_20013" data-name="Path 20013" d="M487.485,883.841c-3.493-3.176-8.769-15.7-8.769-15.7a.077.077,0,0,1,.03-.015,16.251,16.251,0,0,1,6.953-.781c-.479.822.121,7.427,1.524,9.618s13.013,13.706,15.763,17.68c1.568,2.264,5.041,17.13,2.439,15.911-.814-.382-7.04-13.271-9.59-17.278a42.324,42.324,0,0,0-8.351-9.432" transform="translate(-324.437 -587.756)" fill="#ffa080"/>
        <path id="Path_20014" data-name="Path 20014" d="M567.462,929.537c-1-2.368-5.282-5.009-8.924-7.832s-9.744-13.66-9.744-13.66a4.747,4.747,0,0,1,2.037-.152,21.229,21.229,0,0,0,1.856,2.976c2.29,3.094,7.254,7.526,11.224,11.565,5.282,5.373,4.553,9.471,3.551,7.1" transform="translate(-371.93 -615.278)" fill="#ffa080"/>
        <path id="Path_20015" data-name="Path 20015" d="M483.85,1010.78c-3.324-1.662,4.75,15.71,8.848,29.308s11.915,47.46,13.554,59.481,7.923,9.835,5.464,0-11.978-40.168-14.091-47-8.311-39.059-13.775-41.791" transform="translate(-327.386 -684.955)" fill="#ffa080"/>
        <path id="Path_20016" data-name="Path 20016" d="M302.06,859.262c-.82,4.618,1.639,18.557,5.1,18.01s9.289-1.093,10.017-5.828-4.859-12.844-6.056-14.464c-2.231-3.02-8.453-1.146-9.061,2.282" transform="translate(-204.606 -579.769)" fill="#ff578c"/>
        <path id="Path_20017" data-name="Path 20017" d="M389.6,647.87c-1.366,1.138-3.035,3.523-2.566,8.656.688,7.534,5.452,7.935,8.047,7.8s5.577-1.229,4.154-10.108c-.766-4.781-2.347-6.094-4.018-6.83-1.433-.631-4.445-.494-5.618.484" transform="translate(-262.246 -438.49)" fill="#ff578c"/>
        <path id="Path_20018" data-name="Path 20018" d="M230.9,860.957a23.025,23.025,0,0,0-1.821,1.738c.152-2.853-5.153-8.712-7.164-10.654-4.553-4.4,5.04,1.12,6.893,3.712a15.026,15.026,0,0,1,2.092,5.205" transform="translate(-149.571 -576.331)" fill="#ffa080"/>
        <path id="Path_20019" data-name="Path 20019" d="M423.46,221.485H371.073a3.67,3.67,0,0,1-3.67-3.67V203.5a3.67,3.67,0,0,1,3.67-3.67H423.46a3.67,3.67,0,0,1,3.67,3.67v14.313a3.67,3.67,0,0,1-3.67,3.67" transform="translate(-248.998 -135.432)" fill="#ff94bc"/>
        <path id="Path_20020" data-name="Path 20020" d="M490.809,256.2l7.7,8.481a.657.657,0,0,0,1.142-.494l-.58-7.253Z" transform="translate(-332.633 -173.635)" fill="#ff94bc"/>
        <path id="Path_20021" data-name="Path 20021" d="M519.981,219.033h-7.005a.765.765,0,0,1,0-1.529h7.005a.765.765,0,0,1,0,1.529" transform="translate(-347.137 -147.409)" fill="#fff5f9"/>
        <path id="Path_20022" data-name="Path 20022" d="M421.178,219.033H382.308a.765.765,0,0,1,0-1.529h38.869a.765.765,0,0,1,0,1.529" transform="translate(-258.581 -147.409)" fill="#fff5f9"/>
        <path id="Path_20023" data-name="Path 20023" d="M463.8,232.583H430.085a.765.765,0,1,1,0-1.529H463.8a.765.765,0,0,1,0,1.529" transform="translate(-290.96 -156.592)" fill="#fff5f9"/>
        <path id="Path_20024" data-name="Path 20024" d="M394.342,232.583H382.308a.765.765,0,0,1,0-1.529h12.033a.765.765,0,0,1,0,1.529" transform="translate(-258.581 -156.592)" fill="#fff5f9"/>
        <path id="Path_20025" data-name="Path 20025" d="M471.269,246.133h-18.93a.765.765,0,0,1,0-1.529h18.93a.765.765,0,0,1,0,1.529" transform="translate(-306.043 -165.775)" fill="#fff5f9"/>
        <path id="Path_20026" data-name="Path 20026" d="M401.742,246.133H382.308a.765.765,0,1,1,0-1.529h19.435a.765.765,0,0,1,0,1.529" transform="translate(-258.581 -165.775)" fill="#fff5f9"/>
        <path id="Path_20027" data-name="Path 20027" d="M253.053,330.484h52.27a3.662,3.662,0,0,0,3.662-3.661V312.542a3.662,3.662,0,0,0-3.662-3.662h-52.27a3.662,3.662,0,0,0-3.662,3.662v14.281a3.661,3.661,0,0,0,3.662,3.661" transform="translate(-169.018 -209.336)" fill="#94c2ff"/>
        <path id="Path_20028" data-name="Path 20028" d="M296.274,365.123l-7.679,8.462a.656.656,0,0,1-1.14-.493l.579-7.237Z" transform="translate(-194.814 -247.454)" fill="#94c2ff"/>
        <path id="Path_20029" data-name="Path 20029" d="M377.024,328.037H358.383a.763.763,0,1,1,0-1.526h18.641a.763.763,0,0,1,0,1.526" transform="translate(-242.367 -221.285)" fill="#fff5f9"/>
        <path id="Path_20030" data-name="Path 20030" d="M291.293,328.037h-27.13a.763.763,0,1,1,0-1.526h27.13a.763.763,0,1,1,0,1.526" transform="translate(-178.512 -221.285)" fill="#fff5f9"/>
        <path id="Path_20031" data-name="Path 20031" d="M313.169,341.558H264.163a.763.763,0,1,1,0-1.526h49.006a.763.763,0,1,1,0,1.526" transform="translate(-178.512 -230.449)" fill="#fff5f9"/>
        <path id="Path_20032" data-name="Path 20032" d="M283.554,355.078H264.163a.763.763,0,0,1,0-1.526h19.391a.763.763,0,0,1,0,1.526" transform="translate(-178.512 -239.612)" fill="#fff5f9"/>
        <path id="Path_20033" data-name="Path 20033" d="M393.8,453.841H332.591a4.288,4.288,0,0,1-4.288-4.288V432.83a4.288,4.288,0,0,1,4.288-4.288H393.8a4.288,4.288,0,0,1,4.288,4.288v16.723a4.288,4.288,0,0,1-4.288,4.288" transform="translate(-222.498 -290.434)" fill="#ff94bc"/>
        <path id="Path_20034" data-name="Path 20034" d="M472.486,494.4l8.992,9.909a.768.768,0,0,0,1.334-.577l-.678-8.474Z" transform="translate(-320.215 -335.069)" fill="#ff94bc"/>
        <path id="Path_20035" data-name="Path 20035" d="M430.961,450.974H386.822a.893.893,0,1,1,0-1.787h44.138a.893.893,0,1,1,0,1.787" transform="translate(-261.553 -304.426)" fill="#fff5f9"/>
        <path id="Path_20036" data-name="Path 20036" d="M355.177,450.974h-9.459a.893.893,0,0,1,0-1.787h9.459a.893.893,0,1,1,0,1.787" transform="translate(-233.695 -304.426)" fill="#fff5f9"/>
        <path id="Path_20037" data-name="Path 20037" d="M423.8,481.167H401.538a.893.893,0,1,1,0-1.787H423.8a.893.893,0,1,1,0,1.787" transform="translate(-271.526 -324.888)" fill="#fff5f9"/>
        <path id="Path_20038" data-name="Path 20038" d="M359.777,481.167h-14.06a.893.893,0,0,1,0-1.787h14.06a.893.893,0,0,1,0,1.787" transform="translate(-233.695 -324.888)" fill="#fff5f9"/>
        <path id="Path_20039" data-name="Path 20039" d="M379.483,466.806H345.717a.893.893,0,1,1,0-1.787h33.765a.893.893,0,1,1,0,1.787" transform="translate(-233.695 -315.155)" fill="#fff5f9"/>
        <path id="Path_20040" data-name="Path 20040" d="M472.911,466.806H461.852a.893.893,0,1,1,0-1.787h11.059a.893.893,0,1,1,0,1.787" transform="translate(-312.403 -315.155)" fill="#fff5f9"/>
        <path id="Path_20041" data-name="Path 20041" d="M468.42,538.328a8.242,8.242,0,1,1,8.242,8.242,8.242,8.242,0,0,1-8.242-8.242" transform="translate(-317.459 -359.253)" fill="#d5d4ff"/>
        <path id="Path_20042" data-name="Path 20042" d="M475.245,296.829a7.142,7.142,0,1,1,7.142,7.142,7.142,7.142,0,0,1-7.142-7.142" transform="translate(-322.085 -196.329)" fill="#d5d4ff"/>
        <path id="Path_20043" data-name="Path 20043" d="M282.316,401.428a7.142,7.142,0,1,1,7.142,7.142,7.142,7.142,0,0,1-7.142-7.142" transform="translate(-191.332 -267.218)" fill="#ffa685"/>
        <rect id="Rectangle_5082" data-name="Rectangle 5082" width="21.94" height="40.186" transform="matrix(0.287, -0.958, 0.958, 0.287, 196.236, 109.974)" fill="#ffbb4f"/>
        <path id="Path_20044" data-name="Path 20044" d="M615.2,276.025l16.1,16.27L608.9,297.044Z" transform="translate(-412.669 -187.07)" fill="#ffa436"/>
        <path id="Path_20045" data-name="Path 20045" d="M700.788,311.776l-22.394,4.749,16.1,16.27Z" transform="translate(-459.763 -211.299)" fill="#ffa436"/>
        <path id="Path_20046" data-name="Path 20046" d="M666.922,287.547l-22.456,7.461a1.253,1.253,0,0,1-1.378-.413l-14.665-18.571Z" transform="translate(-425.897 -187.07)" fill="#ffcd7d"/>
        <path id="Path_20047" data-name="Path 20047" d="M719.292,286.8a6.549,6.549,0,1,1,4.4,8.152,6.549,6.549,0,0,1-4.4-8.152" transform="translate(-487.293 -191.208)" fill="#ff6126"/>
        <path id="Path_20048" data-name="Path 20048" d="M734.481,296.95a.68.68,0,0,1-.172-.677l2.053-6.859a.68.68,0,1,1,1.3.39l-2.053,6.859a.68.68,0,0,1-1.131.287" transform="translate(-497.639 -195.815)" fill="#fff"/>
        <path id="Path_20049" data-name="Path 20049" d="M528.3,21.133H513.508a4.754,4.754,0,0,1-4.754-4.754V4.758A4.754,4.754,0,0,1,513.508,0H528.3a4.754,4.754,0,0,1,4.754,4.754V16.379a4.754,4.754,0,0,1-4.754,4.754" transform="translate(-344.794 -0.004)" fill="#ff7da0"/>
        <path id="Path_20050" data-name="Path 20050" d="M532.854,56.962l-7.965,8.191a.488.488,0,0,1-.82-.473l2.182-7.717Z" transform="translate(-355.16 -38.606)" fill="#ff7da0"/>
        <path id="Path_20051" data-name="Path 20051" d="M536.029,14.116a3.8,3.8,0,0,0-3.219,2.08,3.8,3.8,0,0,0-3.219-2.08c-2.229,0-3.269,1.981-3.269,3.764s4.952,7.032,6.487,8.27c1.535-1.238,6.487-6.487,6.487-8.27s-1.04-3.764-3.269-3.764" transform="translate(-356.701 -9.568)" fill="#fff"/>
        <path id="Path_20052" data-name="Path 20052" d="M365.969,609.076h-56.8a3.561,3.561,0,0,1-3.561-3.561v-2.165a3.561,3.561,0,0,1,3.561-3.561h56.8a3.561,3.561,0,0,1,3.561,3.561v2.165a3.561,3.561,0,0,1-3.561,3.561" transform="translate(-207.116 -406.492)" fill="#94c2ff"/>
        <path id="Path_20053" data-name="Path 20053" d="M149.382,56.678,115.1,37.705a3.206,3.206,0,0,1-1.515-3.737l4.775-15.714a3.205,3.205,0,0,1,4.619-1.873l40.288,22.3a3.206,3.206,0,0,1,.866,4.909L153.352,55.977a3.206,3.206,0,0,1-3.971.7" transform="translate(-76.885 -10.83)" fill="#323d53"/>
        <path id="Path_20054" data-name="Path 20054" d="M126.817,77.736l6.108,16.332,2.684-12.783Z" transform="translate(-85.947 -52.685)" fill="#323d53"/>
        <path id="Path_20055" data-name="Path 20055" d="M142.033,42.593l1.085.6-4.28,7.733-1.085-.6Zm-1.211,3.783,4.292,2.375-.571,1.032-4.292-2.376Zm5.6-1.352,1.085.6-4.28,7.733-1.085-.6Z" transform="translate(-93.358 -28.868)" fill="#fff"/>
        <path id="Path_20056" data-name="Path 20056" d="M164.972,55.288l1.085.6-4.28,7.733-1.085-.6ZM161.79,62.28l4.441,2.457-.571,1.032-4.441-2.458Zm1.84-3.324,3.856,2.134-.571,1.032-3.856-2.134Zm1.869-3.377,4.441,2.458-.571,1.032-4.441-2.458Z" transform="translate(-108.905 -37.471)" fill="#fff"/>
        <path id="Path_20057" data-name="Path 20057" d="M185.172,66.465l1.085.6-4.28,7.733-1.085-.6Zm-3.166,7,4.425,2.449-.571,1.032L181.435,74.5Z" transform="translate(-122.595 -45.046)" fill="#fff"/>
        <path id="Path_20058" data-name="Path 20058" d="M204.546,77.188l1.085.6-4.28,7.733-1.085-.6Zm-3.166,7,4.425,2.449-.571,1.032-4.425-2.449Z" transform="translate(-135.725 -52.313)" fill="#fff"/>
        <path id="Path_20059" data-name="Path 20059" d="M222.121,97.525a2.758,2.758,0,0,1-.4-1.529,3.637,3.637,0,0,1,.491-1.684l1.213-2.191a3.635,3.635,0,0,1,1.166-1.31,2.762,2.762,0,0,1,1.508-.471,3.484,3.484,0,0,1,2.851,1.578,2.764,2.764,0,0,1,.4,1.528,3.643,3.643,0,0,1-.491,1.684l-1.213,2.191a3.637,3.637,0,0,1-1.166,1.31,2.764,2.764,0,0,1-1.508.472,3.489,3.489,0,0,1-2.851-1.578m2.783.325a1.652,1.652,0,0,0,.9-.3,2.294,2.294,0,0,0,.707-.807l1.254-2.266a2.3,2.3,0,0,0,.308-1.028,1.66,1.66,0,0,0-.225-.924,2.011,2.011,0,0,0-1.686-.933,1.657,1.657,0,0,0-.9.3,2.292,2.292,0,0,0-.707.807L223.3,94.965a2.3,2.3,0,0,0-.308,1.028,1.653,1.653,0,0,0,.225.924,2.009,2.009,0,0,0,1.686.933" transform="translate(-150.264 -61.226)" fill="#fff"/>
        <path id="Path_20060" data-name="Path 20060" d="M79.166,367.063,44.719,390.8a5.43,5.43,0,0,1-6.5-.249L25.63,380.363a5.431,5.431,0,0,1,.333-8.7l34.446-23.732a5.431,5.431,0,0,1,6.5.249L79.5,358.368a5.431,5.431,0,0,1-.334,8.7" transform="translate(-16.003 -235.156)" fill="#62c8cd"/>
        <path id="Path_20061" data-name="Path 20061" d="M120.251,436.513l21.677.247-11.668-7.143Z" transform="translate(-81.497 -291.163)" fill="#62c8cd"/>
        <path id="Path_20062" data-name="Path 20062" d="M52.305,436.423l4.643-3.2.6.878-4.643,3.2Zm2.23-.743.923-.636,4.162,6.041-.923.636Z" transform="translate(-35.448 -293.607)" fill="#fff"/>
        <path id="Path_20063" data-name="Path 20063" d="M69.519,424.536l.923-.636,4.533,6.58-.923.636Zm2.573,2.505,3.652-2.516.6.878L72.7,427.919Zm1.165-5.08.923-.636,4.533,6.58-.923.636Z" transform="translate(-47.115 -285.543)" fill="#fff"/>
        <path id="Path_20064" data-name="Path 20064" d="M94.316,413.064l.787-.543,6.959,4.909-1,.686-5.481-4.052,1.833,6.564-1,.686Zm1.626,5.159,3.462-2.385.6.878L96.546,419.1Z" transform="translate(-63.92 -279.576)" fill="#fff"/>
        <path id="Path_20065" data-name="Path 20065" d="M107.374,398.166l.837-.577,6.721,2.869-.027.193-3.585-5.2.914-.63,4.53,6.575-.846.583-6.66-2.8.028-.193,3.532,5.127-.914.63Z" transform="translate(-72.77 -267.578)" fill="#fff"/>
        <path id="Path_20066" data-name="Path 20066" d="M127.51,384.432l.923-.636,4.533,6.58-.923.636Zm3.268,3.193.361-5.694,1.136-.782L131.6,389.1Zm.665-1.379.264-1.176,5.377,2.468-1.131.78Z" transform="translate(-86.416 -258.315)" fill="#fff"/>
        <path id="Path_20067" data-name="Path 20067" d="M152.756,379.942l-.488.2a4.127,4.127,0,0,1-.981.275,4.08,4.08,0,0,1-1,.023l.088-1.1a3.168,3.168,0,0,0,1.165-.082,3.492,3.492,0,0,0,1.094-.514,2.4,2.4,0,0,0,.926-1.028,1.033,1.033,0,0,0-.122-1.02l0,0a.964.964,0,0,0-.554-.422,1.3,1.3,0,0,0-.667.02,6.189,6.189,0,0,0-.854.324.123.123,0,0,0-.033.016.1.1,0,0,1-.033.016l-.077.033a8.533,8.533,0,0,1-1.251.485,1.837,1.837,0,0,1-1.067-.033,2.082,2.082,0,0,1-1.035-.872l0,0a2.318,2.318,0,0,1-.445-1.232,2.086,2.086,0,0,1,.345-1.209,4.215,4.215,0,0,1,1.854-1.5,4.223,4.223,0,0,1,.832-.236,4.741,4.741,0,0,1,.918-.068l-.02,1.095a3.716,3.716,0,0,0-1.034.1,2.6,2.6,0,0,0-.844.378,2.149,2.149,0,0,0-.862.991,1.075,1.075,0,0,0,.152,1.02l0,0a.881.881,0,0,0,.56.4,1.409,1.409,0,0,0,.677-.043,8.718,8.718,0,0,0,.931-.358.367.367,0,0,0,.039-.017l.038-.016.056-.025.056-.025a6.69,6.69,0,0,1,1.2-.4,1.89,1.89,0,0,1,1.042.079,2.083,2.083,0,0,1,.972.835l.006.009a2.2,2.2,0,0,1,.424,1.226,2.162,2.162,0,0,1-.377,1.221,4.135,4.135,0,0,1-1.151,1.124l-.475.327" transform="translate(-99.905 -252.122)" fill="#fff"/>
      </g>
    </g>
  </g>
</svg>
